HIERARCHY
ROOT hip
{
  OFFSET 0.0 0.0 0.0
  CHANNELS 6 Xposition Yposition Zposition Zrotation Yrotation Xrotation
  JOINT torso
  {
    OFFSET 0.0 0.0 0.0
    CHANNELS 3 Zrotation Xrotation Yrotation
    JOINT neck
    {
      OFFSET -20.11218299999996 327.95800799999995 66.30578600000035
      CHANNELS 3 Zrotation Xrotation Yrotation
      JOINT head
      {
        OFFSET 18.28939800000012 288.83178699999996 217.81652800000006
        CHANNELS 3 Zrotation Xrotation Yrotation
        End Site
        {
          OFFSET 0.0 0.0 0.0
        }
      }
    }
    JOINT left_collar
    {
      OFFSET -20.11218299999996 327.95800799999995 66.30578600000035
      CHANNELS 3 Zrotation Xrotation Yrotation
      JOINT left_upper_arm
      {
        OFFSET -127.08163400000001 -16.17407199999991 15.44799799999987
        CHANNELS 3 Zrotation Xrotation Yrotation
        JOINT left_forearm
        {
          OFFSET -234.267792 45.78796399999999 109.31286600000021
          CHANNELS 3 Zrotation Xrotation Yrotation
          JOINT left_hand
          {
            OFFSET -259.114014 -33.25433399999997 16.18847699999992
            CHANNELS 3 Zrotation Xrotation Yrotation
            End Site
            {
              OFFSET 0.0 0.0 0.0
            }
          }
        }
      }
    }
    JOINT right_collar
    {
      OFFSET -20.11218299999996 327.95800799999995 66.30578600000035
      CHANNELS 3 Zrotation Xrotation Yrotation
      JOINT right_upper_arm
      {
        OFFSET 164.513184 1.5733030000000099 4.892333999999892
        CHANNELS 3 Zrotation Xrotation Yrotation
        JOINT right_forearm
        {
          OFFSET 260.742027 48.718444999999974 144.35229500000014
          CHANNELS 3 Zrotation Xrotation Yrotation
          JOINT right_hand
          {
            OFFSET 287.85150899999996 -44.57171600000015 13.96813899999961
            CHANNELS 3 Zrotation Xrotation Yrotation
            End Site
            {
              OFFSET 0.0 0.0 0.0
            }
          }
        }
      }
    }
  }
}
MOTION
Frames: 14
Frame Time: 0.01
-231.438972912531 252.14736200922943 1389.687360028159 0.6103271259557932 1.1726592814991736 -6.926601849939007 1.1102863990309493 -1.9717114334174959 -0.36346699182329056 -1.2167306884446047 -17.472225141872332 1.9901070957376947 0.0 0.0 0.0 3.3514638357631625 0.09662693740134307 1.9869670240401427 63.8396909317724 26.424167827128333 5.8230057925185 3.375953947057076 1.8935938798424323 -10.519467096601138 0.0 0.0 0.0 -1.486864228740738 0.07536780019978137 9.059100466301539 -67.20617799372897 34.06045963472047 -4.164427730698883 -17.713401693349272 0.5571556647293135 -1.0380759644855384 0.0 0.0 0.0
-231.70268513384022 252.13741059110038 1390.1036839938029 0.6560123916457999 0.9857310249956914 -6.972992684569315 1.054305166662641 -1.7915746941261295 -0.3386459554981556 -1.2111210084824637 -17.481215269643624 1.9860378153258897 0.0 0.0 0.0 3.338965551097959 0.0961400932498283 1.9817364683998178 63.75165417286364 26.394774875439722 5.805024913372967 3.5280036367751797 1.9290481441001275 -10.5892820397258 0.0 0.0 0.0 -1.4728946756230261 0.07385345085477268 9.06249462325492 -67.06849483816377 34.03285371987426 -4.076693390807972 -17.855369656001884 0.6061075830324287 -0.9037626273203194 0.0 0.0 0.0
-231.96868510355654 252.12605104180142 1390.5288521139214 0.7040898177596162 0.8028289074040196 -7.014948848660138 0.9971398302987813 -1.6165321535673736 -0.3140844934388265 -1.205053406922063 -17.489473032970174 1.981554194176415 0.0 0.0 0.0 3.325343412231482 0.09622732807780154 1.9720844252794543 63.66303296249094 26.365126797922397 5.787027561561382 3.682017988263564 1.9655012084442043 -10.66200423771373 0.0 0.0 0.0 -1.4596965808065911 0.0724075972317817 9.061242422743607 -66.92903561162917 34.00502184684673 -3.9872398507198543 -17.998793368981758 0.6565774983510743 -0.7660988442399724 0.0 0.0 0.0
-232.23870381747798 252.11259218969687 1390.9669552608755 0.7547394600382243 0.6256094846177355 -7.051511486532378 0.938854889912369 -1.4484175165969622 -0.28992135780231654 -1.198418775133645 -17.496909783369087 1.9765623980307434 0.0 0.0 0.0 3.3102408977765694 0.09710522717322695 1.9563768528439844 63.57379223001565 26.335071798565288 5.769322643922689 3.83861518268688 2.003348215101279 -10.739312691676538 0.0 0.0 0.0 -1.4473459032597766 0.07103672155163519 9.054248292182464 -66.78718894457137 33.97725168914989 -3.894859011463787 -18.143837373486022 0.7090271253073296 -0.6237419207144839 0.0 0.0 0.0
-232.51466788102817 252.09630547187956 1391.4223718928574 0.8081184873451677 0.45578870277626166 -7.081741536261983 0.8795319604094851 -1.2891186051289822 -0.266298600055092 -1.191092089593973 -17.503435862113342 1.9709555752318133 0.0 0.0 0.0 3.2933237704969525 0.0989821729036942 1.9330378826093826 63.48378820326631 26.304502019095498 5.752017640795034 3.9984630481017596 2.0430109809879013 -10.822923684722745 0.0 0.0 0.0 -1.4359211691536702 0.06974776938613929 9.040402953878832 -66.64226482023348 33.94986152922619 -3.7981876732222797 -18.2906506804074 0.76395196725897 -0.4752707405369989 0.0 0.0 0.0
-232.79863717134643 252.0764444908889 1391.8996257246442 0.8643444488869528 0.2951278887256653 -7.1047474989981545 0.8192792495004021 -1.140556833311907 -0.24336178690484322 -1.182935889367668 -17.508961150741875 1.9646167253094386 0.0 0.0 0.0 3.274295198270253 0.10205002021544832 1.9006110304766328 63.39276986971396 26.273367179953038 5.734987214640092 4.1622430249212234 2.0849243621285947 -10.914536695601164 0.0 0.0 0.0 -1.4255031804280853 0.06854809651510713 9.018618467322591 -66.49352116798349 33.92319841648295 -3.6957357692056734 -18.439337825347504 0.8218648855303056 -0.3192343716177665 0.0 0.0 0.0
-233.09274195924996 252.05226696945232 1392.4032389384745 0.923480505078438 0.145407386814872 -7.11971779609301 0.7582381343264862 -1.0046537636981525 -0.2212587568700745 -1.17380496368521 -17.513396578269 1.9574226086837636 0.0 0.0 0.0 3.2529096792885306 0.10647601522365145 1.8578183826667758 63.30038547203444 26.24168471478655 5.717854219719474 4.330613153962415 2.129522482328039 -11.015782947466487 0.0 0.0 0.0 -1.4161733945842918 0.06744524718141984 8.987867596482618 -66.34019125228644 33.89763505929431 -3.5859180917528644 -18.58993070556424 0.8832786844934003 -0.15420178270692744 0.0 0.0 0.0
-233.39912218644247 252.02305852497759 1392.9375866203002 0.9855235644415978 0.008386972499660127 -7.125957233471424 0.696586166437463 -0.8832840672825268 -0.20013683597624946 -1.1635521200765329 -17.516656582692846 1.9492485914449764 0.0 0.0 0.0 3.228985177425203 0.11239531690423224 1.80361547897217 63.206194022089974 26.209545666034362 5.699984873408572 4.504171564823226 2.1772253445007483 -11.128178665926974 0.0 0.0 0.0 -1.4080108693015645 0.0664465576190717 8.947226525634061 -66.18151065112541 33.87356537941682 -3.467088468006924 -18.74236257671536 0.9486883187053267 0.02118923621303302 0.0 0.0 0.0
-233.7198713288416 251.98815752567342 1393.5067583115629 1.0503959317238656 -0.11424652789779334 -7.122926659512786 0.6345362688839878 -0.7782155936527375 -0.18013862094712133 -1.1520348263847997 -17.518662384231774 1.93997424817961 0.0 0.0 0.0 3.2024129360250972 0.11990445363346333 1.7372398379252751 63.109681539243525 26.177115924388186 5.680498870044948 4.683421928011513 2.228426265006296 -11.253084726701793 0.0 0.0 0.0 -1.4010877640026387 0.06555859584481004 8.895919632791381 -66.01674269336418 33.85139876248044 -3.337575235471271 -18.896445565988248 1.0185533412146808 0.20818583588380923 0.0 0.0 0.0
-234.05698688419076 251.94698018174284 1394.1144324950856 1.1179406465249013 -0.22094248406058467 -7.110284417885021 0.5723323942139201 -0.6910388336678873 -0.1613966363549078 -1.1391224693464348 -17.519345792702158 1.9294894967151623 0.0 0.0 0.0 3.1731645146708103 0.12905599742534066 1.6582513625648476 63.01028144661821 26.14463274860448 5.658294156677003 4.868742259505697 2.283480484504103 -11.391673920862813 0.0 0.0 0.0 -1.3954635127232171 0.06478646885411711 8.833364709044828 -65.84520134545778 33.831553149049384 -3.195716792507025 -19.05185295970388 1.0932812063723565 0.407878330708936 0.0 0.0 0.0
-234.41232902750056 251.8990449706223 1394.7637693388979 1.187920211795706 -0.3103570376363615 -7.087927682467748 0.5102424388310323 -0.6230897188772896 -0.1440273607774059 -1.1247039444602178 -17.518653165588134 1.9177010097262701 0.0 0.0 0.0 3.1412956936386136 0.13985467909076327 1.5665631762473442 62.90739830817513 26.112396845508695 5.63208507749709 5.060358331504591 2.3426952222544406 -11.544906586683881 0.0 0.0 0.0 -1.3911779252891314 0.06413304980793443 8.75921670601855 -65.66627069550627 33.81444720572529 -3.039895982630805 -19.208107339709382 1.173212014218066 0.6211644608200974 0.0 0.0 0.0
-234.78758841236024 251.84399549051653 1395.4573260301238 1.2600179671792584 -0.38142598161351027 -7.056031276237168 0.44854965707471456 -0.5753712032131765 -0.12812526247195685 -1.1086952770817673 -17.516549067561186 1.904538632315862 0.0 0.0 0.0 3.106947029620873 0.15225510123593736 1.4624617621791016 62.80043386590813 26.080760602723796 5.600451684070567 5.258322744799437 2.4063213563203374 -11.713514862218213 0.0 0.0 0.0 -1.3882436261278117 0.06359819755961904 8.673407832386232 -65.47942037468002 33.80049188503572 -2.8685721271635534 -19.364575364261814 1.2586052320248517 0.8487209718024145 0.0 0.0 0.0
-235.1842634805534 251.7816208746173 1396.1969976463597 1.3338411036890283 -0.4334339605877008 -7.015081224343048 0.3875440391839944 -0.5484800124767805 -0.11375753825538257 -1.0910469656214934 -17.513019150328596 1.8899615255989382 0.0 0.0 0.0 3.0703410264204685 0.1661611340943485 1.3466156366443116 62.688814146830545 26.050113340930906 5.561897222990524 5.462500455507248 2.4745468316192736 -11.897995329244749 0.0 0.0 0.0 -1.386638387233205 0.06317805539853776 8.576181644824127 -65.28421647795744 33.790081730327486 -2.680309634088204 -19.520469617925063 1.3496288497083604 1.0909834024052882 0.0 0.0 0.0
-235.60364700276176 251.71187297031304 1396.9839849984335 1.4089243748365314 -0.4660739493274603 -6.965900183316073 0.32751499353865426 -0.5425449788831186 -0.10096017428844276 -1.0717507289355648 -17.508071765900976 1.8739637491373826 0.0 0.0 0.0 3.0317760806927776 0.18142700471442966 1.220072169000897 62.57201627964958 26.020864670314765 5.514910209930196 5.6725612351241645 2.547491828313697 -12.098609404762549 0.0 0.0 0.0 -1.3862980316121905 0.06286452115767287 8.46811873564541 -65.08032778437362 33.7835863145915 -2.4738022543323592 -19.674857522918007 1.4463513257192542 1.3481345326015763 0.0 0.0 0.0
